<svg width="1024" height="1024" viewBox="0 0 1024 1024" fill="none" xmlns="http://www.w3.org/2000/svg">
<rect width="1024" height="1024" rx="200" fill="#E7E3DB"/>
<path d="M814.486 616.629C823.495 616.629 828 628.808 828 653.167C828 666.405 822.435 682.556 811.306 701.62C800.176 720.154 785.602 737.364 767.582 753.25C750.093 768.606 730.484 781.315 708.755 791.376C687.026 801.438 665.826 806.468 645.157 806.468C613.888 806.468 592.159 798.79 579.97 783.433C568.31 767.547 562.48 744.512 562.48 714.329C562.48 683.615 574.405 631.191 598.254 557.056C525.117 553.878 471.854 552.29 438.465 552.29H427.336C417.796 611.069 413.026 672.76 413.026 737.364C413.026 765.959 402.162 785.552 380.433 796.142C370.363 800.908 360.558 805.409 351.019 809.646C342.009 813.882 332.205 816 321.605 816C295.106 816 281.857 792.171 281.857 744.512C281.857 696.854 292.721 635.692 314.45 561.027C291.131 563.675 270.462 566.323 252.443 568.97C234.953 571.618 221.174 572.942 211.104 572.942C201.035 572.942 196 570.294 196 564.999C196 549.113 208.984 532.962 234.953 516.546C261.452 500.13 297.226 487.686 342.274 479.213C392.092 352.654 453.04 268.192 525.117 225.829C551.616 209.943 579.705 202 609.384 202C662.382 202.53 700.54 216.827 723.859 244.893C747.708 272.958 759.633 310.291 759.633 356.89C760.163 402.96 746.118 463.063 717.499 537.198C706.9 565.793 697.095 591.74 688.086 615.04C679.076 638.34 674.571 657.138 674.571 671.436C674.571 685.734 675.631 696.589 677.751 704.003C679.871 711.416 684.906 715.123 692.855 715.123C707.165 715.123 740.818 687.587 793.816 632.515C803.356 621.924 810.246 616.629 814.486 616.629ZM645.157 379.925C645.157 333.855 627.933 310.82 593.484 310.82C558.506 310.82 528.297 325.647 502.858 355.301C477.949 384.426 458.605 423.612 444.825 472.859L625.283 475.242C638.532 432.879 645.157 401.107 645.157 379.925Z" fill="#040404"/>
</svg>
